<?xml version="1.0" encoding="UTF-8"?>
<svg width="48px" height="48px" viewBox="0 0 48 48" version="1.1" xmlns="http://www.w3.org/2000/svg" xmlns:xlink="http://www.w3.org/1999/xlink">
    <title>icon-暂停-点击</title>
    <g id="icon-暂停-点击" stroke="none" stroke-width="1" fill="none" fill-rule="evenodd">
        <path d="M19.0018986,13 C20.1054196,13 21,13.8896739 21,14.991155 L21,33.008845 C21,34.1085295 20.1132936,35 19.0018986,35 L14.9981014,35 C13.8945804,35 13,34.1103261 13,33.008845 L13,14.991155 C13,13.8914705 13.8867064,13 14.9981014,13 L19.0018986,13 Z M33.0018986,13 C34.1054196,13 35,13.8896739 35,14.991155 L35,33.008845 C35,34.1085295 34.1132936,35 33.0018986,35 L28.9981014,35 C27.8945804,35 27,34.1103261 27,33.008845 L27,14.991155 C27,13.8914705 27.8867064,13 28.9981014,13 L33.0018986,13 Z" id="形状结合" fill="#46B8F4"></path>
    </g>
</svg>